<?xml version="1.0" encoding="UTF-8" standalone="no"?>
<svg
   width="318.43381"
   height="299.70285"
   viewBox="0 0 318.43381 299.70285"
   version="1.1"
   xml:space="preserve"
   id="SVGRoot"
   xmlns="http://www.w3.org/2000/svg"
   xmlns:svg="http://www.w3.org/2000/svg"><defs
   id="defs6" />

<style
   type="text/css"
   id="style1">
g.prefab path {
  vector-effect:non-scaling-stroke;
  -inkscape-stroke:hairline;
  fill: none;
  fill-opacity: 1;
  stroke-opacity: 1;
  stroke: #00349c;
}
</style>

<g
   id="g29"
   transform="translate(-127.8188,-309.69493)"><path
     style="fill:#dcfce7;fill-opacity:1;stroke:none;stroke-opacity:1;paint-order:fill markers stroke"
     d="m 229.03526,310.57514 c 38.12615,0.55659 88.21891,-0.55659 119.94446,6.40089 31.72556,6.95748 45.08309,21.98471 47.58778,45.0835 2.50469,23.09879 -5.84394,54.267 -19.20219,86.82763 -13.35825,32.56064 -31.72486,66.51104 -49.25769,91.55793 -17.53282,25.04689 -34.23007,41.18756 -50.92783,48.14487 -16.69775,6.9573 -33.39467,4.73105 -46.47471,-2.50472 -13.08004,-7.23576 -22.54162,-19.48016 -30.33399,-29.22062 -7.79236,-9.74046 -13.91456,-16.97579 -21.42863,-27.82944 -7.51407,-10.85366 -16.41927,-25.3246 -24.76814,-42.02238 -8.34887,-16.69778 -16.14077,-35.62096 -20.87185,-59.27634 -4.73108,-23.65539 -6.40077,-52.04015 -5.00927,-73.19086 1.39149,-21.15071 5.844,-35.0648 21.15043,-40.90907 15.30643,-5.84428 41.46547,-3.61798 79.59163,-3.06139 z"
     id="path14"
     transform="rotate(-43.096728,344.39262,377.61174)" /><path
     style="fill:#22c55e;fill-opacity:1;stroke:none;stroke-opacity:1;paint-order:fill markers stroke"
     d="m 229.03526,310.57514 c 38.12615,0.55659 88.21891,-0.55659 119.94446,6.40089 31.72556,6.95748 45.08309,21.98471 47.58778,45.0835 2.50469,23.09879 -5.84394,54.267 -19.20219,86.82763 -13.35825,32.56064 -31.72486,66.51104 -49.25769,91.55793 -17.53282,25.04689 -34.23007,41.18756 -50.92783,48.14487 -16.69775,6.9573 -33.39467,4.73105 -46.47471,-2.50472 -13.08004,-7.23576 -22.54162,-19.48016 -30.33399,-29.22062 -7.79236,-9.74046 -13.91456,-16.97579 -21.42863,-27.82944 -7.51407,-10.85366 -16.41927,-25.3246 -24.76814,-42.02238 -8.34887,-16.69778 -16.14077,-35.62096 -20.87185,-59.27634 -4.73108,-23.65539 -6.40077,-52.04015 -5.00927,-73.19086 1.39149,-21.15071 5.844,-35.0648 21.15043,-40.90907 15.30643,-5.84428 41.46547,-3.61798 79.59163,-3.06139 z"
     id="path12" /></g></svg>
